# xmcd
#
# Track frame offsets: 
#        150
#        12257
#        24010
#        37406
#        55865
#        68038
#        81279
#        95569
#        107110
#        123324
#        139674
#        152097
#        169573
#
# Disc length: 2442 seconds
#
# Revision: 2
# Processed by: cddbd v1.5.2PL0 Copyright (c) Steve Scherf et al.
# Submitted via: ExactAudioCopy v1.0b3
#
DISCID=a309880d
DTITLE=Various Artist - Country Classics - D1
DYEAR=2008
DGENRE=Country
TTITLE0=Freddy Fender - Before The Next Teardrop Falls {LIVE}
TTITLE1=Donna Fargo - The Happiestr Girl In The Whole USA
TTITLE2=Mickey Gilley - True Love Ways
TTITLE3=Juice Newton - The Sweetest Thing [I Ever Known]
TTITLE4=Merle Haggard - Okie From Muskogee {LIVE}
TTITLE5=Lynn Anderson - Rose Garden
TTITLE6=T. Graham Brown - HELL And High Water
TTITLE7=Holly Dunn - Are You Ever Gonna LOVE Me
TTITLE8=Exile - She's A Miracle
TTITLE9=Janie Fricke - It Ain't Easy Bein' Easy
TTITLE10=T.G. Sheppard - Trying To Beat The Morning Home
TTITLE11=Doug Stone - Too Busy Being In LOVE
TTITLE12=Tanya Tucker - If Your Heart Ain't Busy
EXTD=
EXTT0=
EXTT1=
EXTT2=
EXTT3=
EXTT4=
EXTT5=
EXTT6=
EXTT7=
EXTT8=
EXTT9=
EXTT10=
EXTT11=
EXTT12=
PLAYORDER=
